<svg xmlns="http://www.w3.org/2000/svg" viewBox="0 0 1200 675" fill="none">
  <defs>
    <linearGradient id="bg" x1="0" y1="0" x2="1" y2="1">
      <stop offset="0%" stop-color="#2f120f"/>
      <stop offset="100%" stop-color="#7a2e1c"/>
    </linearGradient>
  </defs>
  <rect width="1200" height="675" fill="url(#bg)"/>
  <circle cx="1030" cy="118" r="214" fill="#f4c7a1" fill-opacity="0.18"/>
  <circle cx="158" cy="560" r="222" fill="#ffffff" fill-opacity="0.05"/>
  <path d="M0 556c170-66 334-74 490-22 181 61 365 60 710-8v149H0z" fill="#08110e" fill-opacity="0.18"/>
  <g transform="translate(445 100)"><path d="M222 345c20-54 56-93 104-115 32-15 57 9 56 43l-2 73c-1 31-23 56-54 62l-46 9c-41 8-73-32-58-72z" fill="none" stroke="#f8eadf" stroke-width="18" stroke-linejoin="round"/><path d="M412 311c17-45 52-76 96-92 31-11 54 12 53 43l-2 65c-1 31-22 56-52 63l-40 10c-41 10-72-27-55-69z" fill="none" stroke="#f8eadf" stroke-width="18" stroke-linejoin="round"/></g>
  <rect x="84" y="90" width="156" height="36" rx="18" fill="#ffffff" fill-opacity="0.12"/>
  <text x="106" y="114" fill="#ffffff" fill-opacity="0.92" font-size="18" font-family="Arial, sans-serif" font-weight="700" letter-spacing="3">POCKET GYM</text>
  <text x="84" y="514" fill="#ffffff" font-size="72" font-family="Arial, sans-serif" font-weight="700">Boxe</text>
  <text x="84" y="556" fill="#ffffff" fill-opacity="0.76" font-size="24" font-family="Arial, sans-serif" font-weight="500">Combattimento in piedi e tecnica al sacco</text>
</svg>
