<svg xmlns="http://www.w3.org/2000/svg" viewBox="0 0 64 64" role="img" aria-label="Palestre in Zona">
  <rect width="64" height="64" rx="18" fill="#0d2d44" />
  <g transform="translate(8.6,-22) scale(0.9)">
    <path
      fill-rule="evenodd"
      clip-rule="evenodd"
      d="M4,50 A22,22 0 1 1 48,50 C48,64 26,92 26,92 C26,92 4,64 4,50 Z M26,40 A10,10 0 1 0 26,60 A10,10 0 1 0 26,40 Z"
      fill="#ffffff"
    />
    <g fill="#0fa3a3">
      <rect x="8" y="47.8" width="36" height="4.4" rx="2.2" />
      <rect x="1" y="44" width="2.6" height="12" rx="1.3" />
      <rect x="5.2" y="41.5" width="3.2" height="17" rx="1.6" />
      <rect x="43.6" y="41.5" width="3.2" height="17" rx="1.6" />
      <rect x="48.4" y="44" width="2.6" height="12" rx="1.3" />
      <circle cx="26" cy="50" r="7" />
    </g>
  </g>
</svg>
