<svg xmlns="http://www.w3.org/2000/svg" viewBox="0 0 256 256" role="img" aria-labelledby="title desc">
  <title id="title">Pocket Gym logo</title>
  <desc id="desc">Un segnaposto a pin con manubrio integrato per il brand Pocket Gym.</desc>
  <defs>
    <linearGradient id="pg-bg" x1="28" y1="20" x2="220" y2="228" gradientUnits="userSpaceOnUse">
      <stop offset="0" stop-color="#2f6f5b"/>
      <stop offset="1" stop-color="#1f5c4a"/>
    </linearGradient>
    <linearGradient id="pg-ring" x1="66" y1="52" x2="188" y2="172" gradientUnits="userSpaceOnUse">
      <stop offset="0" stop-color="#f5efe1"/>
      <stop offset="1" stop-color="#d6cfb0"/>
    </linearGradient>
  </defs>
  <rect x="20" y="20" width="216" height="216" rx="64" fill="url(#pg-bg)"/>
  <path d="M128 54c-34.24 0-62 27.76-62 62 0 48.74 52.39 88.76 58.35 93.2a6 6 0 0 0 7.3 0C137.61 204.76 190 164.74 190 116c0-34.24-27.76-62-62-62Z" fill="url(#pg-ring)"/>
  <circle cx="128" cy="116" r="39" fill="#21473c"/>
  <g fill="#f8f6ef">
    <rect x="92" y="111" width="72" height="10" rx="5"/>
    <rect x="82" y="104" width="8" height="24" rx="3"/>
    <rect x="72" y="101" width="8" height="30" rx="3"/>
    <rect x="166" y="104" width="8" height="24" rx="3"/>
    <rect x="176" y="101" width="8" height="30" rx="3"/>
  </g>
</svg>
