<svg xmlns="http://www.w3.org/2000/svg" width="1400" height="900" viewBox="0 0 1400 900">
  <defs>
    <linearGradient id="bg" x1="0" y1="0" x2="1" y2="1">
      <stop offset="0%" stop-color="#0f172a"/>
      <stop offset="55%" stop-color="#111827"/>
      <stop offset="100%" stop-color="#1f2937"/>
    </linearGradient>
    <linearGradient id="accent" x1="0" y1="0" x2="1" y2="0">
      <stop offset="0%" stop-color="#f43f5e"/>
      <stop offset="100%" stop-color="#f97316"/>
    </linearGradient>
  </defs>
  <rect width="1400" height="900" fill="url(#bg)"/>
  <circle cx="1180" cy="170" r="180" fill="#1f2937" opacity="0.7"/>
  <circle cx="220" cy="720" r="240" fill="#111827" opacity="0.8"/>

  <rect x="120" y="160" rx="36" ry="36" width="1160" height="580" fill="#0b1220" stroke="#1f2937" stroke-width="2"/>

  <rect x="170" y="210" rx="20" ry="20" width="520" height="80" fill="#111827"/>
  <rect x="170" y="310" rx="18" ry="18" width="360" height="60" fill="#111827"/>
  <rect x="170" y="390" rx="18" ry="18" width="420" height="60" fill="#111827"/>

  <rect x="750" y="210" rx="26" ry="26" width="470" height="420" fill="#0f172a" stroke="#1f2937" stroke-width="2"/>
  <rect x="780" y="240" rx="16" ry="16" width="410" height="110" fill="#111827"/>
  <rect x="780" y="370" rx="16" ry="16" width="410" height="110" fill="#111827"/>
  <rect x="780" y="500" rx="16" ry="16" width="410" height="110" fill="#111827"/>

  <rect x="170" y="500" rx="22" ry="22" width="260" height="200" fill="#111827"/>
  <rect x="460" y="500" rx="22" ry="22" width="230" height="200" fill="#111827"/>

  <rect x="170" y="245" rx="12" ry="12" width="180" height="10" fill="#1f2937"/>
  <rect x="170" y="330" rx="12" ry="12" width="140" height="10" fill="#1f2937"/>
  <rect x="170" y="410" rx="12" ry="12" width="200" height="10" fill="#1f2937"/>

  <text x="190" y="260" font-family="Arial, sans-serif" font-size="32" fill="#f8fafc" font-weight="700">Gym Finder</text>
  <text x="190" y="360" font-family="Arial, sans-serif" font-size="24" fill="#94a3b8">Trova la palestra piu vicina</text>
  <text x="190" y="440" font-family="Arial, sans-serif" font-size="22" fill="#94a3b8">Filtri, mappa e schede dettagliate</text>

  <rect x="170" y="610" rx="16" ry="16" width="180" height="50" fill="url(#accent)"/>
  <text x="190" y="642" font-family="Arial, sans-serif" font-size="20" fill="#0b1220" font-weight="700">Filtra</text>

  <rect x="120" y="120" rx="24" ry="24" width="420" height="12" fill="url(#accent)"/>
  <rect x="120" y="120" rx="24" ry="24" width="420" height="12" fill="url(#accent)" opacity="0.35" transform="translate(500, 0)"/>
</svg>
