<svg xmlns="http://www.w3.org/2000/svg" width="1200" height="630" viewBox="0 0 1200 630">
  <rect width="1200" height="630" fill="#F8FAFB"/>
  <rect x="72" y="72" width="1056" height="486" rx="36" fill="#FFFFFF" stroke="#E6E9ED" stroke-width="2"/>
  <g transform="translate(150 130) scale(0.62)">
    <ellipse cx="256" cy="430" rx="76" ry="18" fill="#0FA3A3" opacity="0.32"/>
    <path d="M256 58C162 58 88 131 88 224c0 116 125 211 159 235a15 15 0 0 0 18 0c34-24 159-119 159-235C424 131 350 58 256 58Z" fill="#0D2D44"/>
    <circle cx="256" cy="220" r="104" fill="white"/>
    <g fill="none" stroke="#0FA3A3" stroke-linecap="round" stroke-linejoin="round">
      <path d="M164 220h184" stroke-width="20"/><path d="M202 182v76" stroke-width="20"/><path d="M310 182v76" stroke-width="20"/><path d="M176 198v44" stroke-width="18"/><path d="M336 198v44" stroke-width="18"/><path d="M148 207v26" stroke-width="16"/><path d="M364 207v26" stroke-width="16"/>
    </g>
  </g>
  <text x="440" y="268" font-family="Inter, Poppins, Avenir, Montserrat, Arial, sans-serif" font-size="86" font-weight="800" fill="#0D2D44" letter-spacing="-3">Palestre<tspan fill="#0FA3A3">InZona</tspan></text>
  <text x="445" y="330" font-family="Inter, Poppins, Avenir, Montserrat, Arial, sans-serif" font-size="31" fill="#0D2D44" opacity="0.72">Trova palestre e corsi nella tua zona</text>
  <rect x="445" y="380" width="415" height="54" rx="27" fill="#0FA3A3" opacity="0.1"/>
  <text x="475" y="416" font-family="Inter, Poppins, Avenir, Montserrat, Arial, sans-serif" font-size="23" font-weight="700" fill="#0FA3A3">palestreinzona.it</text>
</svg>